PathFileType	4	(X/Y/Z)	C:/Users/beibeiliu/ov580/test_trc/User1\sequence.24_training_dense_right.trc
DataRate	CameraRate	NumFrames	NumMarkers	Units	OrigDataRate	OrigDataStartFrame	OrigNumFrames
120	120	20	19	mm	120	127	177
Frame#	Time	ThumbCMC			ThumbMCP			ThumbIP			ThumbTip			IndexMCP			IndexPIP			IndexTip			MiddleMCP			MiddlePIP			MiddleTip			RingMCP			RingPIP			RingTip			PinkyMCP			PinkyPIP			PinkyTip			BackHand1			BackHand2			BackHand3	
		X0	Y0	Z0	X1	Y1	Z1	X2	Y2	Z2	X3	Y3	Z3	X4	Y4	Z4	X5	Y5	Z5	X6	Y6	Z6	X7	Y7	Z7	X8	Y8	Z8	X9	Y9	Z9	X10	Y10	Z10	X11	Y11	Z11	X12	Y12	Z12	X13	Y13	Z13	X14	Y14	Z14	X15	Y15	Z15	X16	Y16	Z16	X17	Y17	Z17	X18	Y18	Z18	
126	1.05	133.756	21.2501	66.0484	129.456	23.7987	28.2219	140.473	13.3949	0.968092	146.777	-7.2651	-14.8726	189.313	21.3873	2.8847	201.038	14.8077	-21.28	213.646	6.61666	-41.3085	179.688	-7.57445	-13.991	167.522	-8.59209	-39.247	150.563	-15.3435	-64.3915	155.235	-30.7622	-5.04616	123.23	-26.4499	-4.25338	109.158	-21.8968	26.9052	154.01	-49.174	10.3449	124.897	-40.5297	10.6902	122.217	-21.0882	37.353	182.029	-26.1529	54.915	169.293	-30.5481	90.7646	173.705	8.25126	71.6067	
127	1.05833	127.317	20.4303	65.1276	124.362	18.7307	27.2521	131.674	10.9073	1.4919	143.18	-7.01263	-17.9443	180.753	24.2684	-1.40152	190.244	27.5598	-25.252	204.274	21.9074	-47.1705	174.886	2.15845	-14.6875	161.58	-5.9717	-42.0313	142.811	-13.869	-67.4415	156.979	-24.635	-5.81627	121.203	-31.5348	-3.30307	110.986	-29.0525	25.1573	155.964	-48.1746	5.52702	127.749	-40.7672	11.8553	122.616	-25.8031	38.9563	183.022	-21.1465	51.294	169.026	-21.9024	90.4382	166.251	9.98046	71.3424	
128	1.06667	117.808	18.4171	65.3832	113.199	15.4179	28.1772	126.368	8.458	0.379509	140.473	-7.47331	-22.5845	169.779	32.9663	-4.63321	177.821	30.7956	-24.8366	190.564	29.2112	-48.3045	169.513	6.51964	-14.2471	155.419	-0.0433017	-44.5776	135.042	-14.907	-68.3583	154.963	-22.2916	-9.27307	122.319	-33.5128	-5.1856	112.044	-30.5683	26.6581	159.506	-46.1461	4.70671	132.535	-42.57	7.3139	125.614	-28.135	33.5954	182.015	-13.8303	47.4741	174.452	-18.1852	86.3008	160.573	14.0828	69.4285	
129	1.075	114.933	11.7256	63.507	108.434	11.5072	26.5103	118.377	7.73493	-1.87364	132.9	-6.81566	-22.6534	160.107	34.1267	-8.22522	164.57	38.2121	-27.8579	177.624	36.4019	-51.3426	161.432	11.2005	-20.5113	149.714	-1.39497	-46.3342	126.467	-16.7808	-67.6335	154.319	-20.2054	-8.91672	126.188	-36.939	-7.38546	114.688	-36.4991	27.6167	163.502	-37.3715	5.45329	133.239	-47.4236	11.6734	127.231	-34.6768	39.4235	178.808	-6.05742	47.1463	170.215	-11.7592	85.5194	154.457	19.7457	67.0178	
130	1.08333	109.397	5.8405	67.5378	100.175	7.0696	26.1775	114.495	3.83921	-0.106242	129.47	-8.71625	-18.9312	145.859	37.3941	-4.99505	149.851	42.4415	-28.1298	164.632	40.6425	-51.6626	155.637	10.9593	-21.1108	140.956	-0.692178	-47.0139	123.059	-20.7898	-63.1478	151.995	-20.289	-9.20041	124.309	-39.4667	-3.74298	116.514	-38.3137	30.4341	160.712	-33.9667	3.38449	138.03	-47.9741	9.13303	127.013	-34.9549	40.5463	174.072	2.52236	45.8185	172.865	-9.52828	82.6371	147.952	19.4256	65.3428	
131	1.09167	107.625	2.73057	67.1366	94.3473	-1.13173	32.6983	106.34	-0.598354	-0.0282128	122.787	-10.5351	-18.2142	131.656	39.1998	-2.39467	138.454	43.2128	-26.2883	146.117	46.0716	-52.7852	148.086	14.8843	-16.1423	133.664	-1.00115	-46.8221	118.449	-28.5793	-61.1342	150.619	-17.6054	-7.59411	125.199	-41.1118	-2.58321	121.888	-39.3358	32.8623	162.666	-31.617	2.63677	137.949	-46.5386	12.6334	129.883	-37.9011	41.3184	169.581	5.23756	46.7962	172.207	-0.795813	78.9908	143.701	21.5389	63.9949	
132	1.1	101.077	-1.88515	71.6474	90.0409	-4.97689	33.3107	102.532	-3.08426	0.990818	121.663	-12.9614	-14.8537	127.117	33.5677	-3.42622	130.459	38.5503	-28.4689	134.279	46.1204	-58.2967	138.612	16.5887	-17.9433	128.397	-3.03293	-46.8782	115.544	-29.2231	-59.9218	145.918	-18.5487	-9.24049	124.912	-42.3961	-3.25219	120.419	-39.185	32.6	163.361	-29.4586	2.80333	137.449	-46.6311	13.2283	132.964	-35.3129	39.2368	169.826	7.84426	45.0221	172.134	-1.79857	80.2595	139.061	21.5402	68.3769	
133	1.10833	99.8314	-5.08773	71.2128	93.3946	-8.34835	31.6064	102.056	-9.01716	5.66078	120.02	-16.5097	-14.8833	117.156	33.7308	-7.54853	119.538	36.2022	-32.2519	129.066	39.353	-59.9456	135.991	9.37174	-21.5438	122.546	-3.35031	-43.4971	113.395	-32.3942	-62.5082	145.627	-20.2106	-10.0147	127.577	-47.8527	-2.31418	125.042	-47.2489	31.2934	161.733	-33.6532	0.0280755	139.001	-51.2086	13.8938	132.494	-37.0655	37.6277	165.247	7.41483	41.1094	166.623	4.10709	75.4455	134.103	20.1809	64.4537	
134	1.11667	103.407	-9.12762	70.0429	91.3424	-15.0186	33.9694	97.2833	-12.7716	0.378258	119.297	-19.3167	-18.9089	115.33	28.5534	-7.92214	112.052	32.6151	-31.2618	119.069	36.468	-60.8228	128.618	8.43502	-22.6568	120.28	-9.77422	-45.9953	110.957	-39.4734	-66.08	141.386	-20.5674	-11.9124	126.329	-49.087	-3.76876	121.014	-47.11	33.6491	161.376	-29.7167	-0.0832543	138.168	-48.5147	12.9131	132.255	-36.4563	38.6604	162.299	9.78647	42.1622	166.268	1.47285	77.7777	135.673	18.0844	64.3955	
135	1.125	100.781	-10.9745	68.501	87.2643	-19.4079	32.4103	96.2577	-17.8152	0.500043	117.795	-23.5546	-16.5577	107.977	24.7374	-7.23049	112.015	26.1218	-32.7464	116.76	29.717	-59.3196	128.043	1.69161	-24.5974	119.408	-15.064	-45.6285	111.636	-39.2596	-63.5602	139.826	-26.4463	-12.6081	125.99	-54.3746	-0.0637638	124.797	-54.6704	30.5425	160.06	-32.6199	0.587314	140.423	-53.2892	15.0658	134.35	-38.8045	42.2267	161.131	7.53557	36.9219	165.827	4.05775	76.657	131.376	16.1017	59.3111	
136	1.13333	100.703	-17.1698	71.1452	91.5981	-24.4385	34.2319	98.8921	-24.1707	5.32602	116.984	-28.0984	-15.6775	109.835	17.5635	-7.42823	104.24	20.7278	-31.938	111.378	22.5102	-62.0433	126.551	-2.70865	-23.1184	116.587	-18.5179	-42.8027	112.132	-46.5321	-61.2744	143.978	-28.175	-10.6259	130.682	-57.4529	-0.639754	127.04	-58.6735	34.438	160.492	-35.1195	0.0752767	143.527	-55.8616	16.6739	135.381	-38.9109	42.5189	160.468	7.45364	36.6063	167.589	0.767551	75.4499	130.977	14.8497	59.9389	
137	1.14167	100.139	-21.0353	71.3092	90.8285	-29.4541	33.8984	96.6326	-28.3877	2.73764	115.433	-35.0853	-13.6634	105.928	12.6134	-11.6896	102.404	12.663	-34.1152	105.068	14.8343	-60.4464	124.884	-7.80045	-22.5015	113.892	-28.5628	-45.8514	109.165	-55.6276	-58.9581	142.477	-34.7158	-11.3077	128.838	-63.7972	3.89189	127.169	-59.8712	37.7894	158.504	-40.7945	1.27224	144.69	-59.2668	17.4316	141.932	-43.9583	47.4393	162.828	4.38571	37.7371	162.595	4.04808	74.0679	126.52	11.7115	59.6335	
138	1.15	100.087	-24.0496	70.7267	89.109	-35.3041	35.3456	95.9854	-35.4883	3.66319	115.185	-41.7622	-18.4535	105.586	6.15325	-12.7154	100.937	6.54105	-37.5804	105.542	5.83461	-62.0361	123.82	-13.4777	-24.1575	115.213	-36.9885	-44.3478	115.1	-62.6523	-56.4372	143.269	-35.9892	-8.5931	134.027	-68.9336	5.37252	128.887	-63.8942	38.4444	159.949	-43.8478	1.78646	146.019	-62.4589	18.6235	141.017	-47.7067	48.6156	157.95	3.68152	35.694	165.374	1.63403	72.1276	127.873	6.88306	61.5598	
139	1.15833	104.431	-27.336	71.0737	93.6741	-37.7329	35.5892	97.2846	-40.6331	4.69656	115.893	-45.9748	-13.0003	101.43	1.84095	-12.7109	99.9345	-0.257298	-38.8457	103.339	-1.50612	-61.5588	123.605	-17.9146	-23.3407	117.217	-43.0157	-43.3419	116.424	-70.556	-55.0729	141.694	-39.6477	-7.56327	135.218	-70.8006	4.3102	132.787	-67.0264	40.8069	163.505	-48.5545	3.05129	148.172	-66.0526	17.2869	140.878	-51.1382	48.2646	157.36	-0.226939	35.5577	164.894	0.343165	72.985	129.135	5.0934	60.089	
140	1.16667	104.348	-27.8227	69.4286	89.2407	-43.0881	36.3159	97.1447	-46.2094	8.65462	116.156	-49.8942	-13.5401	102.635	-3.27721	-10.3393	103.847	-5.90681	-39.946	102.314	-6.31611	-64.6627	124.557	-20.8259	-20.8863	117.081	-46.787	-42.1835	118.501	-76.3273	-54.4217	146.522	-46.2431	-8.55054	134.326	-74.6509	6.33473	135.875	-70.8745	42.5396	165.427	-47.1169	4.20861	149.956	-68.9158	17.3945	140.275	-52.1139	49.3101	162.415	-4.90997	37.5926	164.489	-2.79941	70.7463	125.67	3.20177	59.6279	
141	1.175	101.477	-31.8619	73.7777	93.0759	-45.1302	36.5058	96.7775	-48.0962	6.32621	116.78	-54.1335	-10.8565	100.769	-6.9674	-13.6837	104.645	-10.0904	-37.0627	106.209	-12.5835	-63.7036	127.956	-26.1229	-20.4024	117.58	-50.7969	-39.5736	118.05	-81.4995	-50.1528	141.983	-49.4957	-6.47421	137.352	-78.4523	10.5275	133.445	-75.4488	40.8647	168.364	-50.8324	5.54959	151.214	-71.8389	23.1336	144.071	-58.9429	49.874	156.909	-4.19415	35.7976	166.74	-2.28756	73.4308	129.732	0.890043	58.6469	
142	1.18333	101.676	-32.6198	70.2609	90.2734	-49.7001	38.7524	98.2737	-51.9284	7.69092	116.15	-58.9743	-9.39858	104.156	-11.7459	-12.2352	101.9	-15.3655	-35.9414	104.043	-16.9907	-62.3653	126.93	-30.8769	-21.9474	123.326	-55.6527	-37.6536	119.397	-94.0893	-42.9029	145.047	-54.8212	-5.95805	136.838	-79.7438	8.37129	136.016	-74.7757	46.4457	166.958	-54.5816	6.21419	151.927	-73.9612	21.2765	144.568	-62.1646	53.4607	157.966	-7.34925	39.5521	166.998	-2.46992	69.518	125.604	0.731489	58.797	
143	1.19167	104.998	-33.3368	70.5702	91.9615	-51.9419	41.5475	98.6261	-55.7321	8.38802	118.545	-60.7572	-11.8796	103.102	-15.6752	-9.65285	101.45	-19.7179	-39.0507	107.65	-23.2364	-64.0765	127.215	-32.7195	-20.0633	122.938	-61.4394	-36.807	117.858	-99.7993	-33.6172	146.352	-52.7781	-4.35119	140.008	-85.262	15.6241	136.507	-77.5446	45.8203	168.602	-55.2933	7.22398	155.316	-77.717	23.4388	141.511	-61.6535	51.283	156.504	-7.00297	34.4524	164.149	-5.28983	75.0385	127.069	-3.86231	57.8114	
144	1.2	105.334	-36.2128	76.8908	91.8357	-54.9353	42.3311	100.188	-57.9693	13.0204	116.1	-65.9339	-8.89832	102.042	-19.1815	-12.5251	104.352	-23.9056	-38.664	102.728	-27.8826	-61.5757	123.254	-35.3603	-17.8323	120.104	-68.6658	-33.5337	117.297	-102.23	-21.8868	144.908	-59.1778	-3.68243	140.551	-85.5398	13.1222	138.411	-77.2127	49.2469	168.255	-60.0904	7.95569	152.03	-79.7272	28.4873	143.287	-65.3149	51.4375	156.471	-11.4975	34.1652	163.18	-4.51074	74.8918	126.274	-2.24532	56.7744	
145	1.20833	104.597	-35.9323	76.2609	93.2714	-54.4419	42.83	98.157	-62.1942	14.6669	116.411	-68.978	-6.34299	103.575	-23.5345	-11.8514	101.822	-27.4828	-34.6096	101.895	-33.2993	-61.5988	123.716	-39.0131	-17.9309	117.687	-73.3457	-29.9272	116.784	-104.394	-6.69495	142.375	-61.753	-2.35313	135.877	-89.5792	18.7063	137.423	-76.9761	50.706	164.135	-61.7988	9.44979	151.48	-82.0365	28.134	146.121	-66.2673	57.2089	159.856	-13.0734	36.6749	163.558	-5.68434	71.951	128.445	-3.72783	57.3654	
